<mxfile host="app.diagrams.net" modified="2024-06-09T18:52:11.028Z" agent="Mozilla/5.0 (Windows NT 10.0; Win64; x64; rv:126.0) Gecko/20100101 Firefox/126.0" etag="aku46j8RaLdkey4KU9PE" version="24.5.2" type="github">
  <diagram id="C5RBs43oDa-KdzZeNtuy" name="Page-1">
    <mxGraphModel dx="1316" dy="822" grid="1" gridSize="10" guides="1" tooltips="1" connect="1" arrows="1" fold="1" page="1" pageScale="1" pageWidth="827" pageHeight="1169" math="0" shadow="0">
      <root>
        <mxCell id="WIyWlLk6GJQsqaUBKTNV-0" />
        <mxCell id="WIyWlLk6GJQsqaUBKTNV-1" parent="WIyWlLk6GJQsqaUBKTNV-0" />
        <mxCell id="PK9Mwoqlpw54ZULxrit6-35" value="Field" style="shape=swimlane;startSize=20;" vertex="1" parent="WIyWlLk6GJQsqaUBKTNV-1">
          <mxGeometry x="80" y="40" width="120" height="60" as="geometry" />
        </mxCell>
        <mxCell id="PK9Mwoqlpw54ZULxrit6-36" value="value: str" style="text;html=1;whiteSpace=wrap;align=left;" vertex="1" parent="PK9Mwoqlpw54ZULxrit6-35">
          <mxGeometry y="20" width="120" height="20" as="geometry" />
        </mxCell>
        <mxCell id="PK9Mwoqlpw54ZULxrit6-37" value="+ __str__()" style="text;html=1;whiteSpace=wrap;align=left;" vertex="1" parent="PK9Mwoqlpw54ZULxrit6-35">
          <mxGeometry y="40" width="120" height="20" as="geometry" />
        </mxCell>
        <mxCell id="PK9Mwoqlpw54ZULxrit6-38" value="Name" style="shape=swimlane;startSize=20;" vertex="1" parent="WIyWlLk6GJQsqaUBKTNV-1">
          <mxGeometry x="300" y="160" width="120" height="40" as="geometry" />
        </mxCell>
        <mxCell id="PK9Mwoqlpw54ZULxrit6-39" value="+ __init__()" style="text;html=1;whiteSpace=wrap;align=left;" vertex="1" parent="PK9Mwoqlpw54ZULxrit6-38">
          <mxGeometry y="20" width="120" height="20" as="geometry" />
        </mxCell>
        <mxCell id="PK9Mwoqlpw54ZULxrit6-40" style="endArrow=block;endFill=1;edgeStyle=orthogonalEdgeStyle;" edge="1" parent="WIyWlLk6GJQsqaUBKTNV-1" source="PK9Mwoqlpw54ZULxrit6-38" target="PK9Mwoqlpw54ZULxrit6-35">
          <mxGeometry relative="1" as="geometry" />
        </mxCell>
        <mxCell id="PK9Mwoqlpw54ZULxrit6-41" value="Phone" style="shape=swimlane;startSize=20;" vertex="1" parent="WIyWlLk6GJQsqaUBKTNV-1">
          <mxGeometry x="300" y="100" width="120" height="40" as="geometry" />
        </mxCell>
        <mxCell id="PK9Mwoqlpw54ZULxrit6-42" value="+ __init__()" style="text;html=1;whiteSpace=wrap;align=left;" vertex="1" parent="PK9Mwoqlpw54ZULxrit6-41">
          <mxGeometry y="20" width="120" height="20" as="geometry" />
        </mxCell>
        <mxCell id="PK9Mwoqlpw54ZULxrit6-43" style="endArrow=block;endFill=1;edgeStyle=orthogonalEdgeStyle;" edge="1" parent="WIyWlLk6GJQsqaUBKTNV-1" source="PK9Mwoqlpw54ZULxrit6-41" target="PK9Mwoqlpw54ZULxrit6-35">
          <mxGeometry relative="1" as="geometry" />
        </mxCell>
        <mxCell id="PK9Mwoqlpw54ZULxrit6-44" value="Birthday" style="shape=swimlane;startSize=20;" vertex="1" parent="WIyWlLk6GJQsqaUBKTNV-1">
          <mxGeometry x="300" y="30" width="120" height="40" as="geometry" />
        </mxCell>
        <mxCell id="PK9Mwoqlpw54ZULxrit6-45" value="+ __init__()" style="text;html=1;whiteSpace=wrap;align=left;" vertex="1" parent="PK9Mwoqlpw54ZULxrit6-44">
          <mxGeometry y="20" width="120" height="20" as="geometry" />
        </mxCell>
        <mxCell id="PK9Mwoqlpw54ZULxrit6-46" style="endArrow=block;endFill=1;edgeStyle=orthogonalEdgeStyle;" edge="1" parent="WIyWlLk6GJQsqaUBKTNV-1" source="PK9Mwoqlpw54ZULxrit6-44" target="PK9Mwoqlpw54ZULxrit6-35">
          <mxGeometry relative="1" as="geometry" />
        </mxCell>
        <mxCell id="PK9Mwoqlpw54ZULxrit6-47" value="Record" style="shape=swimlane;startSize=20;" vertex="1" parent="WIyWlLk6GJQsqaUBKTNV-1">
          <mxGeometry x="80" y="260" width="180" height="210" as="geometry" />
        </mxCell>
        <mxCell id="PK9Mwoqlpw54ZULxrit6-48" value="name: Name" style="text;html=1;whiteSpace=wrap;align=left;" vertex="1" parent="PK9Mwoqlpw54ZULxrit6-47">
          <mxGeometry y="20" width="180" height="20" as="geometry" />
        </mxCell>
        <mxCell id="PK9Mwoqlpw54ZULxrit6-49" value="phones: list[Phone]" style="text;html=1;whiteSpace=wrap;align=left;" vertex="1" parent="PK9Mwoqlpw54ZULxrit6-47">
          <mxGeometry y="40" width="180" height="20" as="geometry" />
        </mxCell>
        <mxCell id="PK9Mwoqlpw54ZULxrit6-50" value="birthday: Birthday" style="text;html=1;whiteSpace=wrap;align=left;" vertex="1" parent="PK9Mwoqlpw54ZULxrit6-47">
          <mxGeometry y="60" width="180" height="20" as="geometry" />
        </mxCell>
        <mxCell id="PK9Mwoqlpw54ZULxrit6-51" value="+ add_birthday()" style="text;html=1;whiteSpace=wrap;align=left;" vertex="1" parent="PK9Mwoqlpw54ZULxrit6-47">
          <mxGeometry y="80" width="180" height="20" as="geometry" />
        </mxCell>
        <mxCell id="PK9Mwoqlpw54ZULxrit6-52" value="+ add_phone()" style="text;html=1;whiteSpace=wrap;align=left;" vertex="1" parent="PK9Mwoqlpw54ZULxrit6-47">
          <mxGeometry y="100" width="180" height="20" as="geometry" />
        </mxCell>
        <mxCell id="PK9Mwoqlpw54ZULxrit6-53" value="+ remove_phone()" style="text;html=1;whiteSpace=wrap;align=left;" vertex="1" parent="PK9Mwoqlpw54ZULxrit6-47">
          <mxGeometry y="120" width="180" height="20" as="geometry" />
        </mxCell>
        <mxCell id="PK9Mwoqlpw54ZULxrit6-54" value="+ edit_phone()" style="text;html=1;whiteSpace=wrap;align=left;" vertex="1" parent="PK9Mwoqlpw54ZULxrit6-47">
          <mxGeometry y="140" width="180" height="20" as="geometry" />
        </mxCell>
        <mxCell id="PK9Mwoqlpw54ZULxrit6-55" value="+ find_phone()" style="text;html=1;whiteSpace=wrap;align=left;" vertex="1" parent="PK9Mwoqlpw54ZULxrit6-47">
          <mxGeometry y="160" width="180" height="20" as="geometry" />
        </mxCell>
        <mxCell id="PK9Mwoqlpw54ZULxrit6-56" value="+ __str__()" style="text;html=1;whiteSpace=wrap;align=left;" vertex="1" parent="PK9Mwoqlpw54ZULxrit6-47">
          <mxGeometry y="180" width="180" height="20" as="geometry" />
        </mxCell>
        <mxCell id="PK9Mwoqlpw54ZULxrit6-57" value="AddressBook" style="shape=swimlane;startSize=20;" vertex="1" parent="WIyWlLk6GJQsqaUBKTNV-1">
          <mxGeometry x="300" y="260" width="180" height="100" as="geometry" />
        </mxCell>
        <mxCell id="PK9Mwoqlpw54ZULxrit6-58" value="+ add_record()" style="text;html=1;whiteSpace=wrap;align=left;" vertex="1" parent="PK9Mwoqlpw54ZULxrit6-57">
          <mxGeometry y="20" width="180" height="20" as="geometry" />
        </mxCell>
        <mxCell id="PK9Mwoqlpw54ZULxrit6-59" value="+ find()" style="text;html=1;whiteSpace=wrap;align=left;" vertex="1" parent="PK9Mwoqlpw54ZULxrit6-57">
          <mxGeometry y="40" width="180" height="20" as="geometry" />
        </mxCell>
        <mxCell id="PK9Mwoqlpw54ZULxrit6-60" value="+ delete()" style="text;html=1;whiteSpace=wrap;align=left;" vertex="1" parent="PK9Mwoqlpw54ZULxrit6-57">
          <mxGeometry y="60" width="180" height="20" as="geometry" />
        </mxCell>
        <mxCell id="PK9Mwoqlpw54ZULxrit6-61" value="+ get_upcoming_birthdays()" style="text;html=1;whiteSpace=wrap;align=left;" vertex="1" parent="PK9Mwoqlpw54ZULxrit6-57">
          <mxGeometry y="80" width="180" height="20" as="geometry" />
        </mxCell>
        <mxCell id="PK9Mwoqlpw54ZULxrit6-62" style="endArrow=block;endFill=1;edgeStyle=orthogonalEdgeStyle;" edge="1" parent="WIyWlLk6GJQsqaUBKTNV-1" source="PK9Mwoqlpw54ZULxrit6-57" target="PK9Mwoqlpw54ZULxrit6-47">
          <mxGeometry relative="1" as="geometry" />
        </mxCell>
        <mxCell id="PK9Mwoqlpw54ZULxrit6-63" value="UserView" style="shape=swimlane;startSize=20;" vertex="1" parent="WIyWlLk6GJQsqaUBKTNV-1">
          <mxGeometry x="540" y="260" width="180" height="100" as="geometry" />
        </mxCell>
        <mxCell id="PK9Mwoqlpw54ZULxrit6-64" value="+ show_message()" style="text;html=1;whiteSpace=wrap;align=left;" vertex="1" parent="PK9Mwoqlpw54ZULxrit6-63">
          <mxGeometry y="20" width="180" height="20" as="geometry" />
        </mxCell>
        <mxCell id="PK9Mwoqlpw54ZULxrit6-65" value="+ show_contacts()" style="text;html=1;whiteSpace=wrap;align=left;" vertex="1" parent="PK9Mwoqlpw54ZULxrit6-63">
          <mxGeometry y="40" width="180" height="20" as="geometry" />
        </mxCell>
        <mxCell id="PK9Mwoqlpw54ZULxrit6-66" value="+ show_help()" style="text;html=1;whiteSpace=wrap;align=left;" vertex="1" parent="PK9Mwoqlpw54ZULxrit6-63">
          <mxGeometry y="60" width="180" height="20" as="geometry" />
        </mxCell>
        <mxCell id="PK9Mwoqlpw54ZULxrit6-67" value="ConsoleView" style="shape=swimlane;startSize=20;" vertex="1" parent="WIyWlLk6GJQsqaUBKTNV-1">
          <mxGeometry x="80" y="520" width="180" height="80" as="geometry" />
        </mxCell>
        <mxCell id="PK9Mwoqlpw54ZULxrit6-68" value="+ show_message()" style="text;html=1;whiteSpace=wrap;align=left;" vertex="1" parent="PK9Mwoqlpw54ZULxrit6-67">
          <mxGeometry y="20" width="180" height="20" as="geometry" />
        </mxCell>
        <mxCell id="PK9Mwoqlpw54ZULxrit6-69" value="+ show_contacts()" style="text;html=1;whiteSpace=wrap;align=left;" vertex="1" parent="PK9Mwoqlpw54ZULxrit6-67">
          <mxGeometry y="40" width="180" height="20" as="geometry" />
        </mxCell>
        <mxCell id="PK9Mwoqlpw54ZULxrit6-70" value="+ show_help()" style="text;html=1;whiteSpace=wrap;align=left;" vertex="1" parent="PK9Mwoqlpw54ZULxrit6-67">
          <mxGeometry y="60" width="180" height="20" as="geometry" />
        </mxCell>
        <mxCell id="PK9Mwoqlpw54ZULxrit6-71" style="endArrow=block;endFill=1;edgeStyle=orthogonalEdgeStyle;" edge="1" parent="WIyWlLk6GJQsqaUBKTNV-1" source="PK9Mwoqlpw54ZULxrit6-67" target="PK9Mwoqlpw54ZULxrit6-63">
          <mxGeometry relative="1" as="geometry" />
        </mxCell>
      </root>
    </mxGraphModel>
  </diagram>
</mxfile>
